# xmcd CD database file
#
# Track frame offsets:
#	150
#	9471
#	20076
#	32535
#	42233
#	55026
#	63927
#	74505
#	87379
#	99177
#	111385
#	121725
#	130700
#	142536
#	153998
#	164614
#	178149
#	189778
#	202478
#	212266
#	222416
#	232222
#	242373
#	253028
#
# Disc length: 3506 seconds
#
# Revision: 1
# Processed by: cddbd v1.5.2PL0 Copyright (c) Steve Scherf et al.
# Submitted via: CDex 1.72
#
DISCID=4c0db018
DTITLE=Wanda Jackson - Before The Music Died - The Complete Recordings 1954-1962 Disc Two
DYEAR=2013
DGENRE=Country
TTITLE0=01 - There's A Party Going On
TTITLE1=02 - Lonely Weekends
TTITLE2=03 - Kansas City
TTITLE3=04 - Baby Baby Bye Bye
TTITLE4=05 - Fallin'
TTITLE5=06 - Hard Headed Women
TTITLE6=07 - Tongue Tied
TTITLE7=08 - It Doesn't Matter Anymore
TTITLE8=09 - Sparkling Brown Eyes
TTITLE9=10 - Tweedle Dee
TTITLE10=11 - Lost Weekend
TTITLE11=12 - Man We Had A Party
TTITLE12=13 - Right Or Wrong 
TTITLE13=14 - Why I'm Walkin'
TTITLE14=15 - So Soon
TTITLE15=16 -  The Last Letter
TTITLE16=17 - I May Never Get To Heaven
TTITLE17=18 - The Window Up Above
TTITLE18=19 - Sticks And Stones
TTITLE19=20 - Stupid Cupid
TTITLE20=21 - Slippin' and Slidin'
TTITLE21=22 - Brown Eyed Handsome Man
TTITLE22=23 - Who Shot Sam
TTITLE23=24 - My Baby Left Me
EXTD=YEAR: 2013
EXTT0=
EXTT1=
EXTT2=
EXTT3=
EXTT4=
EXTT5=
EXTT6=
EXTT7=
EXTT8=
EXTT9=
EXTT10=
EXTT11=
EXTT12=
EXTT13=
EXTT14=
EXTT15=
EXTT16=
EXTT17=
EXTT18=
EXTT19=
EXTT20=
EXTT21=
EXTT22=
EXTT23=
PLAYORDER=
